<mxfile host="Electron" agent="Mozilla/5.0 (Windows NT 10.0; Win64; x64) AppleWebKit/537.36 (KHTML, like Gecko) draw.io/24.7.17 Chrome/128.0.6613.36 Electron/32.0.1 Safari/537.36" version="24.7.17">
  <diagram name="Page-1" id="blGF_8906786D8li0F5b">
    <mxGraphModel dx="1098" dy="1968" grid="1" gridSize="10" guides="1" tooltips="1" connect="1" arrows="1" fold="1" page="1" pageScale="1" pageWidth="850" pageHeight="1100" math="0" shadow="0">
      <root>
        <mxCell id="0" />
        <mxCell id="1" parent="0" />
        <mxCell id="WjkSZCAjRXJnZuoTl2Gd-1" value="" style="sketch=0;points=[[0,0,0],[0.25,0,0],[0.5,0,0],[0.75,0,0],[1,0,0],[0,1,0],[0.25,1,0],[0.5,1,0],[0.75,1,0],[1,1,0],[0,0.25,0],[0,0.5,0],[0,0.75,0],[1,0.25,0],[1,0.5,0],[1,0.75,0]];outlineConnect=0;fontColor=#232F3E;fillColor=#ED7100;strokeColor=#ffffff;dashed=0;verticalLabelPosition=bottom;verticalAlign=top;align=center;html=1;fontSize=12;fontStyle=0;aspect=fixed;shape=mxgraph.aws4.resourceIcon;resIcon=mxgraph.aws4.ec2;" vertex="1" parent="1">
          <mxGeometry x="200" y="280" width="78" height="78" as="geometry" />
        </mxCell>
        <mxCell id="WjkSZCAjRXJnZuoTl2Gd-2" value="" style="sketch=0;points=[[0,0,0],[0.25,0,0],[0.5,0,0],[0.75,0,0],[1,0,0],[0,1,0],[0.25,1,0],[0.5,1,0],[0.75,1,0],[1,1,0],[0,0.25,0],[0,0.5,0],[0,0.75,0],[1,0.25,0],[1,0.5,0],[1,0.75,0]];outlineConnect=0;fontColor=#232F3E;fillColor=#ED7100;strokeColor=#ffffff;dashed=0;verticalLabelPosition=bottom;verticalAlign=top;align=center;html=1;fontSize=12;fontStyle=0;aspect=fixed;shape=mxgraph.aws4.resourceIcon;resIcon=mxgraph.aws4.ec2;" vertex="1" parent="1">
          <mxGeometry x="520" y="280" width="78" height="78" as="geometry" />
        </mxCell>
        <mxCell id="WjkSZCAjRXJnZuoTl2Gd-3" value="" style="sketch=0;outlineConnect=0;fontColor=#232F3E;gradientColor=none;fillColor=#ED7100;strokeColor=none;dashed=0;verticalLabelPosition=bottom;verticalAlign=top;align=center;html=1;fontSize=12;fontStyle=0;aspect=fixed;pointerEvents=1;shape=mxgraph.aws4.auto_scaling2;" vertex="1" parent="1">
          <mxGeometry x="377.5" y="270" width="45" height="45" as="geometry" />
        </mxCell>
        <mxCell id="WjkSZCAjRXJnZuoTl2Gd-21" style="edgeStyle=orthogonalEdgeStyle;rounded=0;orthogonalLoop=1;jettySize=auto;html=1;" edge="1" parent="1" source="WjkSZCAjRXJnZuoTl2Gd-9" target="WjkSZCAjRXJnZuoTl2Gd-10">
          <mxGeometry relative="1" as="geometry" />
        </mxCell>
        <mxCell id="WjkSZCAjRXJnZuoTl2Gd-9" value="" style="rounded=1;arcSize=10;dashed=1;fillColor=none;gradientColor=none;dashPattern=8 3 1 3;strokeWidth=2;" vertex="1" parent="1">
          <mxGeometry x="200" y="244.25" width="400" height="149.5" as="geometry" />
        </mxCell>
        <mxCell id="WjkSZCAjRXJnZuoTl2Gd-22" style="edgeStyle=orthogonalEdgeStyle;rounded=0;orthogonalLoop=1;jettySize=auto;html=1;" edge="1" parent="1" source="WjkSZCAjRXJnZuoTl2Gd-10" target="WjkSZCAjRXJnZuoTl2Gd-11">
          <mxGeometry relative="1" as="geometry" />
        </mxCell>
        <mxCell id="WjkSZCAjRXJnZuoTl2Gd-10" value="" style="sketch=0;points=[[0,0,0],[0.25,0,0],[0.5,0,0],[0.75,0,0],[1,0,0],[0,1,0],[0.25,1,0],[0.5,1,0],[0.75,1,0],[1,1,0],[0,0.25,0],[0,0.5,0],[0,0.75,0],[1,0.25,0],[1,0.5,0],[1,0.75,0]];outlineConnect=0;fontColor=#232F3E;fillColor=#C925D1;strokeColor=#ffffff;dashed=0;verticalLabelPosition=bottom;verticalAlign=top;align=center;html=1;fontSize=12;fontStyle=0;aspect=fixed;shape=mxgraph.aws4.resourceIcon;resIcon=mxgraph.aws4.rds;" vertex="1" parent="1">
          <mxGeometry x="200" y="480" width="80" height="80" as="geometry" />
        </mxCell>
        <mxCell id="WjkSZCAjRXJnZuoTl2Gd-11" value="" style="sketch=0;points=[[0,0,0],[0.25,0,0],[0.5,0,0],[0.75,0,0],[1,0,0],[0,1,0],[0.25,1,0],[0.5,1,0],[0.75,1,0],[1,1,0],[0,0.25,0],[0,0.5,0],[0,0.75,0],[1,0.25,0],[1,0.5,0],[1,0.75,0]];outlineConnect=0;fontColor=#232F3E;fillColor=#C925D1;strokeColor=#ffffff;dashed=0;verticalLabelPosition=bottom;verticalAlign=top;align=center;html=1;fontSize=12;fontStyle=0;aspect=fixed;shape=mxgraph.aws4.resourceIcon;resIcon=mxgraph.aws4.rds;" vertex="1" parent="1">
          <mxGeometry x="520" y="480" width="80" height="80" as="geometry" />
        </mxCell>
        <mxCell id="WjkSZCAjRXJnZuoTl2Gd-23" style="edgeStyle=orthogonalEdgeStyle;rounded=0;orthogonalLoop=1;jettySize=auto;html=1;" edge="1" parent="1" source="WjkSZCAjRXJnZuoTl2Gd-14" target="WjkSZCAjRXJnZuoTl2Gd-15">
          <mxGeometry relative="1" as="geometry" />
        </mxCell>
        <mxCell id="WjkSZCAjRXJnZuoTl2Gd-14" value="" style="sketch=0;outlineConnect=0;fontColor=#232F3E;gradientColor=none;fillColor=#8C4FFF;strokeColor=none;dashed=0;verticalLabelPosition=bottom;verticalAlign=top;align=center;html=1;fontSize=12;fontStyle=0;aspect=fixed;pointerEvents=1;shape=mxgraph.aws4.internet_gateway;" vertex="1" parent="1">
          <mxGeometry x="367.5" y="20" width="60" height="60" as="geometry" />
        </mxCell>
        <mxCell id="WjkSZCAjRXJnZuoTl2Gd-15" value="" style="sketch=0;outlineConnect=0;fontColor=#232F3E;gradientColor=none;fillColor=#8C4FFF;strokeColor=none;dashed=0;verticalLabelPosition=bottom;verticalAlign=top;align=center;html=1;fontSize=12;fontStyle=0;aspect=fixed;pointerEvents=1;shape=mxgraph.aws4.application_load_balancer;" vertex="1" parent="1">
          <mxGeometry x="372.5" y="140" width="50" height="50" as="geometry" />
        </mxCell>
        <mxCell id="WjkSZCAjRXJnZuoTl2Gd-19" style="edgeStyle=orthogonalEdgeStyle;rounded=0;orthogonalLoop=1;jettySize=auto;html=1;entryX=0.1;entryY=0.306;entryDx=0;entryDy=0;entryPerimeter=0;" edge="1" parent="1" source="WjkSZCAjRXJnZuoTl2Gd-15" target="WjkSZCAjRXJnZuoTl2Gd-9">
          <mxGeometry relative="1" as="geometry" />
        </mxCell>
        <mxCell id="WjkSZCAjRXJnZuoTl2Gd-20" style="edgeStyle=orthogonalEdgeStyle;rounded=0;orthogonalLoop=1;jettySize=auto;html=1;entryX=0.9;entryY=0.306;entryDx=0;entryDy=0;entryPerimeter=0;" edge="1" parent="1" source="WjkSZCAjRXJnZuoTl2Gd-15" target="WjkSZCAjRXJnZuoTl2Gd-9">
          <mxGeometry relative="1" as="geometry" />
        </mxCell>
        <mxCell id="WjkSZCAjRXJnZuoTl2Gd-24" value="Security Group" style="fontStyle=0;verticalAlign=top;align=center;spacingTop=-2;fillColor=none;rounded=0;whiteSpace=wrap;html=1;strokeColor=#FF0000;strokeWidth=2;dashed=1;container=1;collapsible=0;expand=0;recursiveResize=0;" vertex="1" parent="1">
          <mxGeometry x="490" y="264" width="119" height="110" as="geometry" />
        </mxCell>
        <mxCell id="WjkSZCAjRXJnZuoTl2Gd-36" value="" style="rounded=1;arcSize=10;dashed=0;fillColor=none;gradientColor=none;strokeWidth=2;" vertex="1" parent="WjkSZCAjRXJnZuoTl2Gd-24">
          <mxGeometry x="-11" y="-14" width="140" height="140" as="geometry" />
        </mxCell>
        <mxCell id="WjkSZCAjRXJnZuoTl2Gd-37" value="" style="dashed=0;html=1;shape=mxgraph.aws3.permissions;fillColor=#D9A741;gradientColor=none;dashed=0;" vertex="1" parent="WjkSZCAjRXJnZuoTl2Gd-24">
          <mxGeometry x="9" y="-34" width="30" height="35" as="geometry" />
        </mxCell>
        <mxCell id="WjkSZCAjRXJnZuoTl2Gd-25" value="Security Group" style="fontStyle=0;verticalAlign=top;align=center;spacingTop=-2;fillColor=none;rounded=0;whiteSpace=wrap;html=1;strokeColor=#FF0000;strokeWidth=2;dashed=1;container=1;collapsible=0;expand=0;recursiveResize=0;" vertex="1" parent="1">
          <mxGeometry x="190" y="260" width="120" height="110" as="geometry" />
        </mxCell>
        <mxCell id="WjkSZCAjRXJnZuoTl2Gd-34" value="" style="rounded=1;arcSize=10;dashed=0;fillColor=none;gradientColor=none;strokeWidth=2;" vertex="1" parent="WjkSZCAjRXJnZuoTl2Gd-25">
          <mxGeometry x="-10" y="-15.75" width="140" height="140" as="geometry" />
        </mxCell>
        <mxCell id="WjkSZCAjRXJnZuoTl2Gd-26" value="Security Group" style="fontStyle=0;verticalAlign=top;align=center;spacingTop=-2;fillColor=none;rounded=0;whiteSpace=wrap;html=1;strokeColor=#FF0000;strokeWidth=2;dashed=1;container=1;collapsible=0;expand=0;recursiveResize=0;" vertex="1" parent="1">
          <mxGeometry x="180" y="465" width="120" height="110" as="geometry" />
        </mxCell>
        <mxCell id="WjkSZCAjRXJnZuoTl2Gd-32" value="" style="rounded=1;arcSize=10;dashed=0;fillColor=none;gradientColor=none;strokeWidth=2;" vertex="1" parent="WjkSZCAjRXJnZuoTl2Gd-26">
          <mxGeometry x="-10" y="-15" width="140" height="140" as="geometry" />
        </mxCell>
        <mxCell id="WjkSZCAjRXJnZuoTl2Gd-27" value="Security Group" style="fontStyle=0;verticalAlign=top;align=center;spacingTop=-2;fillColor=none;rounded=0;whiteSpace=wrap;html=1;strokeColor=#FF0000;strokeWidth=2;dashed=1;container=1;collapsible=0;expand=0;recursiveResize=0;" vertex="1" parent="1">
          <mxGeometry x="499" y="465" width="120" height="110" as="geometry" />
        </mxCell>
        <mxCell id="WjkSZCAjRXJnZuoTl2Gd-30" value="" style="rounded=1;arcSize=10;dashed=0;fillColor=none;gradientColor=none;strokeWidth=2;" vertex="1" parent="WjkSZCAjRXJnZuoTl2Gd-27">
          <mxGeometry x="-10" y="-15" width="140" height="140" as="geometry" />
        </mxCell>
        <mxCell id="WjkSZCAjRXJnZuoTl2Gd-31" value="" style="dashed=0;html=1;shape=mxgraph.aws3.permissions;fillColor=#D9A741;gradientColor=none;dashed=0;" vertex="1" parent="WjkSZCAjRXJnZuoTl2Gd-27">
          <mxGeometry y="-35" width="30" height="35" as="geometry" />
        </mxCell>
        <mxCell id="WjkSZCAjRXJnZuoTl2Gd-38" style="edgeStyle=orthogonalEdgeStyle;rounded=0;orthogonalLoop=1;jettySize=auto;html=1;exitX=1;exitY=0.5;exitDx=0;exitDy=0;exitPerimeter=0;entryX=1;entryY=1;entryDx=0;entryDy=0;entryPerimeter=0;" edge="1" parent="WjkSZCAjRXJnZuoTl2Gd-27" source="WjkSZCAjRXJnZuoTl2Gd-31" target="WjkSZCAjRXJnZuoTl2Gd-31">
          <mxGeometry relative="1" as="geometry" />
        </mxCell>
        <mxCell id="WjkSZCAjRXJnZuoTl2Gd-33" value="" style="dashed=0;html=1;shape=mxgraph.aws3.permissions;fillColor=#D9A741;gradientColor=none;dashed=0;" vertex="1" parent="1">
          <mxGeometry x="200" y="225" width="30" height="35" as="geometry" />
        </mxCell>
        <mxCell id="WjkSZCAjRXJnZuoTl2Gd-35" value="" style="dashed=0;html=1;shape=mxgraph.aws3.permissions;fillColor=#D9A741;gradientColor=none;dashed=0;" vertex="1" parent="1">
          <mxGeometry x="180" y="430" width="30" height="35" as="geometry" />
        </mxCell>
        <mxCell id="WjkSZCAjRXJnZuoTl2Gd-41" value="Public subnet" style="points=[[0,0],[0.25,0],[0.5,0],[0.75,0],[1,0],[1,0.25],[1,0.5],[1,0.75],[1,1],[0.75,1],[0.5,1],[0.25,1],[0,1],[0,0.75],[0,0.5],[0,0.25]];outlineConnect=0;gradientColor=none;html=1;whiteSpace=wrap;fontSize=12;fontStyle=0;container=1;pointerEvents=0;collapsible=0;recursiveResize=0;shape=mxgraph.aws4.group;grIcon=mxgraph.aws4.group_security_group;grStroke=0;strokeColor=#7AA116;fillColor=#F2F6E8;verticalAlign=top;align=left;spacingLeft=30;fontColor=#248814;dashed=0;" vertex="1" parent="1">
          <mxGeometry x="220" y="80" width="130" height="130" as="geometry" />
        </mxCell>
        <mxCell id="WjkSZCAjRXJnZuoTl2Gd-44" value="" style="sketch=0;outlineConnect=0;fontColor=#232F3E;gradientColor=none;fillColor=#8C4FFF;strokeColor=none;dashed=0;verticalLabelPosition=bottom;verticalAlign=top;align=center;html=1;fontSize=12;fontStyle=0;aspect=fixed;pointerEvents=1;shape=mxgraph.aws4.nat_gateway;" vertex="1" parent="WjkSZCAjRXJnZuoTl2Gd-41">
          <mxGeometry x="22" y="32" width="78" height="78" as="geometry" />
        </mxCell>
        <mxCell id="WjkSZCAjRXJnZuoTl2Gd-42" value="Public subnet" style="points=[[0,0],[0.25,0],[0.5,0],[0.75,0],[1,0],[1,0.25],[1,0.5],[1,0.75],[1,1],[0.75,1],[0.5,1],[0.25,1],[0,1],[0,0.75],[0,0.5],[0,0.25]];outlineConnect=0;gradientColor=none;html=1;whiteSpace=wrap;fontSize=12;fontStyle=0;container=1;pointerEvents=0;collapsible=0;recursiveResize=0;shape=mxgraph.aws4.group;grIcon=mxgraph.aws4.group_security_group;grStroke=0;strokeColor=#7AA116;fillColor=#F2F6E8;verticalAlign=top;align=left;spacingLeft=30;fontColor=#248814;dashed=0;" vertex="1" parent="1">
          <mxGeometry x="460" y="80" width="130" height="130" as="geometry" />
        </mxCell>
        <mxCell id="WjkSZCAjRXJnZuoTl2Gd-45" value="" style="sketch=0;outlineConnect=0;fontColor=#232F3E;gradientColor=none;fillColor=#8C4FFF;strokeColor=none;dashed=0;verticalLabelPosition=bottom;verticalAlign=top;align=center;html=1;fontSize=12;fontStyle=0;aspect=fixed;pointerEvents=1;shape=mxgraph.aws4.nat_gateway;" vertex="1" parent="WjkSZCAjRXJnZuoTl2Gd-42">
          <mxGeometry x="26" y="32" width="78" height="78" as="geometry" />
        </mxCell>
        <mxCell id="WjkSZCAjRXJnZuoTl2Gd-46" value="Availability Zone" style="fillColor=none;strokeColor=#147EBA;dashed=1;verticalAlign=top;fontStyle=0;fontColor=#147EBA;whiteSpace=wrap;html=1;" vertex="1" parent="1">
          <mxGeometry x="120" y="40" width="240" height="580" as="geometry" />
        </mxCell>
        <mxCell id="WjkSZCAjRXJnZuoTl2Gd-48" value="Availability Zone" style="fillColor=none;strokeColor=#147EBA;dashed=1;verticalAlign=top;fontStyle=0;fontColor=#147EBA;whiteSpace=wrap;html=1;" vertex="1" parent="1">
          <mxGeometry x="440" y="40" width="240" height="580" as="geometry" />
        </mxCell>
        <mxCell id="WjkSZCAjRXJnZuoTl2Gd-49" value="Region" style="points=[[0,0],[0.25,0],[0.5,0],[0.75,0],[1,0],[1,0.25],[1,0.5],[1,0.75],[1,1],[0.75,1],[0.5,1],[0.25,1],[0,1],[0,0.75],[0,0.5],[0,0.25]];outlineConnect=0;gradientColor=none;html=1;whiteSpace=wrap;fontSize=12;fontStyle=0;container=1;pointerEvents=0;collapsible=0;recursiveResize=0;shape=mxgraph.aws4.group;grIcon=mxgraph.aws4.group_region;strokeColor=#00A4A6;fillColor=none;verticalAlign=top;align=left;spacingLeft=30;fontColor=#147EBA;dashed=1;" vertex="1" parent="1">
          <mxGeometry x="80" width="640" height="660" as="geometry" />
        </mxCell>
        <mxCell id="WjkSZCAjRXJnZuoTl2Gd-50" value="AWS Cloud" style="sketch=0;outlineConnect=0;gradientColor=none;html=1;whiteSpace=wrap;fontSize=12;fontStyle=0;shape=mxgraph.aws4.group;grIcon=mxgraph.aws4.group_aws_cloud;strokeColor=#AAB7B8;fillColor=none;verticalAlign=top;align=left;spacingLeft=30;fontColor=#AAB7B8;dashed=0;" vertex="1" parent="WjkSZCAjRXJnZuoTl2Gd-49">
          <mxGeometry x="-40" y="-40" width="720" height="760" as="geometry" />
        </mxCell>
      </root>
    </mxGraphModel>
  </diagram>
</mxfile>
